<svg width="16" height="16" viewBox="0 0 16 16" fill="none" xmlns="http://www.w3.org/2000/svg">
<rect width="16" height="16" rx="5" fill="url(#paint0_linear_247_4)"/>
<path d="M2.96662 11V5.18182H5.26207C5.70147 5.18182 6.07647 5.26042 6.38707 5.41761C6.69957 5.57292 6.93726 5.79356 7.10014 6.07955C7.26491 6.36364 7.3473 6.69792 7.3473 7.08239C7.3473 7.46875 7.26397 7.80114 7.0973 8.07955C6.93063 8.35606 6.68916 8.56818 6.37287 8.71591C6.05848 8.86364 5.67779 8.9375 5.23082 8.9375H3.69389V7.94886H5.03196C5.26681 7.94886 5.46188 7.91667 5.61719 7.85227C5.77249 7.78788 5.88802 7.69129 5.96378 7.5625C6.04143 7.43371 6.08026 7.27367 6.08026 7.08239C6.08026 6.8892 6.04143 6.72633 5.96378 6.59375C5.88802 6.46117 5.77154 6.3608 5.61435 6.29261C5.45904 6.22254 5.26302 6.1875 5.02628 6.1875H4.19673V11H2.96662ZM6.10866 8.35227L7.55469 11H6.19673L4.78196 8.35227H6.10866ZM9.11151 5.18182L10.5178 9.60227H10.5717L11.9808 5.18182H13.3445L11.3388 11H9.75355L7.74503 5.18182H9.11151Z" fill="white"/>
<defs>
<linearGradient id="paint0_linear_247_4" x1="0" y1="0" x2="16" y2="16" gradientUnits="userSpaceOnUse">
<stop stop-color="#55F5FF"/>
<stop offset="1" stop-color="#000E88"/>
</linearGradient>
</defs>
</svg>
