<svg width="22" height="20" viewBox="0 0 22 20" fill="none" xmlns="http://www.w3.org/2000/svg">
<rect x="0.902222" width="21" height="20" rx="5" fill="#FFEA2F"/>
<path d="M5.63 14V7.7H8.51C9.086 7.7 9.581 7.793 9.995 7.979C10.415 8.165 10.739 8.435 10.967 8.789C11.195 9.137 11.309 9.551 11.309 10.031C11.309 10.505 11.195 10.916 10.967 11.264C10.739 11.606 10.415 11.87 9.995 12.056C9.581 12.236 9.086 12.326 8.51 12.326H6.62L7.412 11.579V14H5.63ZM9.527 14L7.961 11.705H9.86L11.435 14H9.527ZM7.412 11.768L6.62 10.949H8.402C8.774 10.949 9.05 10.868 9.23 10.706C9.416 10.544 9.509 10.319 9.509 10.031C9.509 9.737 9.416 9.509 9.23 9.347C9.05 9.185 8.774 9.104 8.402 9.104H6.62L7.412 8.285V11.768ZM14.2271 14L11.5361 7.7H13.4621L15.7301 13.154H14.5961L16.9181 7.7H18.6821L15.9821 14H14.2271Z" fill="black"/>
</svg>
